<svg width="30" height="31" viewBox="0 0 30 31" fill="none" xmlns="http://www.w3.org/2000/svg">
<path d="M17.5 24.5146C22.2137 24.5146 24.5712 24.5146 26.035 23.0496C27.5 21.5859 27.5 19.2284 27.5 14.5146C27.5 9.8009 27.5 7.4434 26.035 5.97965C24.5712 4.51465 22.2137 4.51465 17.5 4.51465H12.5C7.78625 4.51465 5.42875 4.51465 3.965 5.97965C2.5 7.4434 2.5 9.8009 2.5 14.5146C2.5 19.2284 2.5 21.5859 3.965 23.0496C4.78125 23.8671 5.875 24.2284 7.5 24.3871" stroke="#00B2FF" stroke-width="2.5" stroke-linecap="round" stroke-linejoin="round"/>
<path d="M14.9996 14.5146V14.5271M9.99957 14.5146V14.5271M19.9996 14.5146V14.5271M17.4996 24.5146C15.9546 24.5146 14.2521 25.1396 12.6983 25.9459C10.2008 27.2421 8.95207 27.8909 8.33707 27.4771C7.72207 27.0646 7.83832 25.7834 8.07207 23.2221L8.12457 22.6396" stroke="#00B2FF" stroke-width="2.5" stroke-linecap="round"/>
</svg>
