<svg width="30" height="31" viewBox="0 0 30 31" fill="none" xmlns="http://www.w3.org/2000/svg">
<g clip-path="url(#clip0_430_106)">
<path d="M11.25 2.63965H1.875V28.8896H11.25V2.63965ZM28.125 2.63965H18.75V12.0146H28.125V2.63965ZM28.125 19.5146V28.8896H18.75V19.5146H28.125ZM0 2.63965C0 2.14237 0.197544 1.66545 0.549175 1.31382C0.900806 0.962193 1.37772 0.764648 1.875 0.764648L11.25 0.764648C11.7473 0.764648 12.2242 0.962193 12.5758 1.31382C12.9275 1.66545 13.125 2.14237 13.125 2.63965V28.8896C13.125 29.3869 12.9275 29.8638 12.5758 30.2155C12.2242 30.5671 11.7473 30.7646 11.25 30.7646H1.875C1.37772 30.7646 0.900806 30.5671 0.549175 30.2155C0.197544 29.8638 0 29.3869 0 28.8896V2.63965ZM16.875 2.63965C16.875 2.14237 17.0725 1.66545 17.4242 1.31382C17.7758 0.962193 18.2527 0.764648 18.75 0.764648L28.125 0.764648C28.6223 0.764648 29.0992 0.962193 29.4508 1.31382C29.8025 1.66545 30 2.14237 30 2.63965V12.0146C30 12.5119 29.8025 12.9888 29.4508 13.3405C29.0992 13.6921 28.6223 13.8896 28.125 13.8896H18.75C18.2527 13.8896 17.7758 13.6921 17.4242 13.3405C17.0725 12.9888 16.875 12.5119 16.875 12.0146V2.63965ZM18.75 17.6396C18.2527 17.6396 17.7758 17.8372 17.4242 18.1888C17.0725 18.5405 16.875 19.0174 16.875 19.5146V28.8896C16.875 29.3869 17.0725 29.8638 17.4242 30.2155C17.7758 30.5671 18.2527 30.7646 18.75 30.7646H28.125C28.6223 30.7646 29.0992 30.5671 29.4508 30.2155C29.8025 29.8638 30 29.3869 30 28.8896V19.5146C30 19.0174 29.8025 18.5405 29.4508 18.1888C29.0992 17.8372 28.6223 17.6396 28.125 17.6396H18.75Z" fill="#FF006B"/>
</g>
<defs>
<clipPath id="clip0_430_106">
<rect width="30" height="30" fill="white" transform="translate(0 0.764648)"/>
</clipPath>
</defs>
</svg>
