<svg width="37" height="37" viewBox="0 0 37 37" fill="none" xmlns="http://www.w3.org/2000/svg">
<g clip-path="url(#clip0_430_85)">
<path d="M26.3108 14.5182L26.4402 15.0011L26.9231 14.8717L27.5751 14.697L27.4457 14.214L27.5828 14.6949C28.4791 14.4393 29.4381 14.5227 30.2767 14.9293C31.1134 15.3349 31.7717 16.0338 32.1268 16.8929C32.3084 17.3721 32.3875 17.8841 32.3591 18.3958C32.3305 18.9097 32.1941 19.4118 31.9586 19.8695C31.7232 20.3271 31.3941 20.7301 30.9926 21.0522C30.5912 21.3742 30.1264 21.6082 29.6286 21.7388L29.6261 21.7395L28.8211 21.9552L28.3382 22.0846L28.4676 22.5675L29.725 27.2603C29.8051 27.5592 29.7632 27.8776 29.6085 28.1456C29.4537 28.4136 29.1989 28.6091 28.9 28.6892L10.3865 33.6499C10.0876 33.73 9.76915 33.6881 9.50118 33.5333C9.23321 33.3786 9.03768 33.1238 8.9576 32.8249L7.18253 26.2003L9.11439 25.6827L9.11698 25.682C9.52148 25.5712 9.89828 25.3769 10.2231 25.1116C10.5469 24.847 10.8119 24.5176 11.0009 24.1446C11.1947 23.7734 11.3086 23.3657 11.3353 22.9478C11.3621 22.5286 11.3006 22.1085 11.1548 21.7147L11.1506 21.7035L11.1459 21.6925C10.8465 20.9891 10.2984 20.4207 9.6064 20.0959C8.91665 19.7722 8.13211 19.7132 7.40182 19.9299L5.62962 20.4047L3.9969 14.3114C3.91682 14.0125 3.95874 13.694 4.11345 13.4261C4.26816 13.1581 4.52298 12.9626 4.82186 12.8825L10.4564 11.3727L10.9257 11.247L10.8135 10.7743C10.697 10.2836 10.683 9.77417 10.7724 9.27784C10.8617 8.78151 11.0525 8.30895 11.3328 7.8897C11.613 7.47044 11.9768 7.11351 12.4013 6.84121C12.8241 6.56994 13.2982 6.38848 13.7941 6.30807C14.6713 6.18903 15.5626 6.38137 16.3127 6.85172C17.0645 7.32308 17.6266 8.04366 17.9009 8.88749L18.0475 9.33867L18.5058 9.21588L23.3354 7.92179C23.6343 7.8417 23.9528 7.88363 24.2207 8.03834C24.4887 8.19305 24.6842 8.44787 24.7643 8.74675L26.3108 14.5182ZM29.4535 21.0955L29.4561 21.0948C29.8606 20.9841 30.2374 20.7898 30.5622 20.5245C30.886 20.2599 31.151 19.9305 31.34 19.5576C31.5338 19.1863 31.6477 18.7786 31.6745 18.3607C31.7013 17.9415 31.6397 17.5214 31.4939 17.1276L31.4898 17.1163L31.4851 17.1054C31.1857 16.402 30.6376 15.8336 29.9455 15.5088C29.2558 15.1851 28.4712 15.1261 27.741 15.3428L25.9688 15.8176L24.1204 8.91929L23.9909 8.43633L23.508 8.56574L17.5514 10.1618L17.3289 9.33136C17.1514 8.59058 16.708 7.94067 16.0828 7.50517C15.4556 7.06822 14.6893 6.87775 13.9304 6.97016L13.9185 6.97161L13.9068 6.97362C13.4928 7.04425 13.0982 7.20103 12.7486 7.4338C12.4 7.66591 12.1039 7.96843 11.8793 8.32187C11.6508 8.67208 11.498 9.06621 11.4308 9.47896C11.3634 9.89289 11.3835 10.3164 11.4899 10.722L11.4899 10.722L11.4906 10.7246L11.7559 11.7147L4.99441 13.5264L4.51144 13.6558L4.64085 14.1388L5.97161 19.1053L6.10102 19.5882L6.58399 19.4588L7.23599 19.2841L7.236 19.2842L7.24369 19.282C8.13995 19.0264 9.09894 19.1099 9.93757 19.5164C10.7742 19.922 11.4326 20.6209 11.7877 21.4801C11.9693 21.9593 12.0484 22.4712 12.0199 22.9829C11.9914 23.4968 11.8549 23.9989 11.6195 24.4566C11.3841 24.9142 11.0549 25.3172 10.6535 25.6393C10.252 25.9614 9.78728 26.1953 9.28945 26.3259L9.28693 26.3266L8.48199 26.5423L7.99903 26.6717L8.12844 27.1547L9.60155 32.6524L9.73096 33.1353L10.2139 33.0059L28.7275 28.0452L29.2105 27.9158L29.0811 27.4329L27.5217 21.6132L29.4535 21.0955Z" stroke="#2BEA6C"/>
</g>
<defs>
<clipPath id="clip0_430_85">
<rect width="30" height="30" fill="white" transform="translate(0 7.76465) rotate(-15)"/>
</clipPath>
</defs>
</svg>
