<svg width="30" height="31" viewBox="0 0 30 31" fill="none" xmlns="http://www.w3.org/2000/svg">
<path d="M23.75 9.51465H6.25C5.91848 9.51465 5.60054 9.64634 5.36612 9.88077C5.1317 10.1152 5 10.4331 5 10.7646V27.0146C5 27.3462 5.1317 27.6641 5.36612 27.8985C5.60054 28.133 5.91848 28.2646 6.25 28.2646H23.75C24.0815 28.2646 24.3995 28.133 24.6339 27.8985C24.8683 27.6641 25 27.3462 25 27.0146V10.7646C25 10.4331 24.8683 10.1152 24.6339 9.88077C24.3995 9.64634 24.0815 9.51465 23.75 9.51465Z" stroke="#F1392B" stroke-width="2.5" stroke-linecap="round" stroke-linejoin="round"/>
<path d="M10.625 12.0146V7.63965C10.625 7.06512 10.7382 6.49621 10.958 5.96541C11.1779 5.43461 11.5002 4.95231 11.9064 4.54606C12.3127 4.1398 12.795 3.81754 13.3258 3.59768C13.8566 3.37781 14.4255 3.26465 15 3.26465C15.5745 3.26465 16.1434 3.37781 16.6742 3.59768C17.205 3.81754 17.6873 4.1398 18.0936 4.54606C18.4998 4.95231 18.8221 5.43461 19.042 5.96541C19.2618 6.49621 19.375 7.06512 19.375 7.63965V12.0146" stroke="#F1392B" stroke-width="2.5" stroke-linecap="round" stroke-linejoin="round"/>
</svg>
