<svg width="100" height="100" viewBox="0 0 100 100" fill="none" xmlns="http://www.w3.org/2000/svg">
<path fill-rule="evenodd" clip-rule="evenodd" d="M25.4999 30.9999V24.9999H31.4999H43.9997H49.9997C49.9997 38.8069 61.1925 49.9997 74.9996 49.9997C61.1926 49.9997 49.9997 61.1926 49.9997 74.9996C49.9997 88.8066 61.1926 99.9995 74.9996 99.9995C88.8066 99.9995 99.9995 88.8066 99.9995 74.9996C99.9995 61.1926 88.8066 49.9997 74.9996 49.9997H93.9995H99.9995V43.9997V24.9999C99.9995 11.1928 88.8066 0 74.9996 0C61.1925 0 49.9997 11.1928 49.9997 24.9999C49.9997 22.9731 49.7533 20.9585 49.269 18.9999C48.9689 17.7859 48.5775 16.5934 48.0967 15.4328C46.8404 12.3997 44.9989 9.64374 42.6774 7.32229C40.356 5.00084 37.6 3.15936 34.5669 1.903C31.5338 0.64664 28.2829 0 24.9999 0C21.7168 0 18.466 0.646641 15.4328 1.903C12.3997 3.15936 9.64374 5.00084 7.32229 7.32229C5.00084 9.64375 3.15936 12.3997 1.903 15.4328C0.64664 18.466 0 21.7168 0 24.9999V47.9997V49.9997V53.9997V55.9997V65.9097V71.9097H6H28.0897C38.1098 71.9097 46.5589 65.1834 49.168 55.9997C49.7098 54.0929 49.9997 52.0802 49.9997 49.9997H43.9997H25.4999V47.9997V30.9999ZM19.4999 47.9997V24.9999V18.9999H25.4999H43.0275C42.8849 18.5713 42.7268 18.1474 42.5535 17.7289C41.5986 15.4238 40.1991 13.3292 38.4348 11.5649C36.6705 9.80063 34.576 8.40111 32.2708 7.44628C29.9656 6.49145 27.495 6 24.9999 6C22.5048 6 20.0341 6.49145 17.7289 7.44628C15.4238 8.40111 13.3292 9.80063 11.5649 11.5649C9.80063 13.3292 8.40111 15.4238 7.44628 17.7289C6.49145 20.0341 6 22.5048 6 24.9999V47.9997H19.4999ZM93.9995 43.9997V24.9999C93.9995 14.5065 85.4929 6 74.9996 6C64.5063 6 55.9997 14.5065 55.9997 24.9999C55.9997 35.4932 64.5063 43.9997 74.9996 43.9997H93.9995ZM93.9995 74.9996C93.9995 85.4929 85.4929 93.9995 74.9996 93.9995C64.5063 93.9995 55.9997 85.4929 55.9997 74.9996C55.9997 64.5063 64.5063 55.9997 74.9996 55.9997C85.4929 55.9997 93.9995 64.5063 93.9995 74.9996ZM42.8295 55.9997H6V65.9097H28.0897C34.7538 65.9097 40.461 61.8125 42.8295 55.9997ZM6 100H0C0 97.9195 0.28997 95.9068 0.8317 94C3.44082 84.8163 11.8899 78.09 21.91 78.09H43.9997H49.9997V84.09V94V100H43.9997H6ZM43.9997 94H7.1702C9.53876 88.1872 15.2459 84.09 21.91 84.09H43.9997V94Z" fill="white"/>
</svg>
