<svg width="114" height="114" viewBox="0 0 114 114" fill="none" xmlns="http://www.w3.org/2000/svg">
<path fill-rule="evenodd" clip-rule="evenodd" d="M8.34746 8.34746C5.70099 10.9939 3.60169 14.1357 2.16943 17.5935C0.737174 21.0513 0 24.7573 0 28.5V55.56V57V61.56V63V75.9775V81.9775H6H32.0225C43.7488 81.9775 53.5878 73.8968 56.2747 63C56.7486 61.078 57 59.0683 57 57H51H29.07V55.56V34.5V28.5H35.07H51H57C57 44.2401 69.7599 57 85.5 57C69.7599 57 57 69.7599 57 85.5C57 101.24 69.7599 114 85.5 114C101.24 114 114 101.24 114 85.5C114 69.7599 101.24 57 85.5 57H108H114V51V28.5C114 12.7599 101.24 0 85.5 0C69.7599 0 57 12.7599 57 28.5C57 26.4782 56.7849 24.4671 56.3613 22.5C56.0007 20.8257 55.4891 19.1834 54.8306 17.5935C53.3983 14.1357 51.299 10.9939 48.6525 8.34746C46.0061 5.70099 42.8643 3.60169 39.4065 2.16943C35.9487 0.737174 32.2427 0 28.5 0C24.7573 0 21.0513 0.737175 17.5935 2.16943C14.1357 3.60169 10.9939 5.70099 8.34746 8.34746ZM39.4065 2.16943L37.1104 7.71271C39.8402 8.84344 42.3206 10.5008 44.4099 12.5901C46.4992 14.6794 48.1566 17.1598 49.2873 19.8896C49.6405 20.7423 49.9401 21.6141 50.1852 22.5H29.07H23.07V28.5V55.56H6V28.5C6 25.5453 6.58198 22.6194 7.71271 19.8896C8.84344 17.1598 10.5008 14.6794 12.5901 12.5901C14.6794 10.5008 17.1598 8.84344 19.8896 7.71271C22.6194 6.58198 25.5453 6 28.5 6C31.4547 6 34.3806 6.58198 37.1104 7.71271L39.4065 2.16943ZM108 51V28.5C108 16.0736 97.9264 6 85.5 6C73.0736 6 63 16.0736 63 28.5C63 40.9264 73.0736 51 85.5 51H108ZM108 85.5C108 97.9264 97.9264 108 85.5 108C73.0736 108 63 97.9264 63 85.5C63 73.0736 73.0736 63 85.5 63C97.9264 63 108 73.0736 108 85.5ZM50.032 63H6V75.9775H32.0225C40.4067 75.9775 47.521 70.5405 50.032 63ZM6 114.001H0C0 111.932 0.251405 109.923 0.725324 108.001C3.41218 97.1039 13.2512 89.0231 24.9775 89.0231H51H57V95.0231V108.001V114.001H51H6ZM51 108.001H6.96803C9.47902 100.46 16.5933 95.0231 24.9775 95.0231H51V108.001Z" fill="black"/>
</svg>
