<svg width="556" height="100" viewBox="0 0 556 100" fill="none" xmlns="http://www.w3.org/2000/svg">
<mask id="path-1-inside-1_13_334" fill="white">
<path fill-rule="evenodd" clip-rule="evenodd" d="M100 50C100 43.4339 98.7067 36.9321 96.194 30.8658C93.6812 24.7995 89.9983 19.2876 85.3553 14.6447C80.7124 10.0017 75.2004 6.31876 69.1342 3.80602C63.0679 1.29329 56.5661 0 50 0C43.4339 0 36.9321 1.29329 30.8658 3.80602C24.7995 6.31876 19.2876 10.0017 14.6447 14.6447C10.0017 19.2876 6.31876 24.7996 3.80602 30.8658C1.29329 36.9321 0 43.4339 0 50V100H50V50H100ZM556 50C556 43.4339 554.707 36.9321 552.194 30.8658C549.681 24.7995 545.998 19.2876 541.355 14.6447C536.712 10.0017 531.2 6.31876 525.134 3.80602C519.068 1.29329 512.566 0 506 0C499.434 0 492.932 1.29329 486.866 3.80602C480.8 6.31876 475.288 10.0017 470.645 14.6447C466.002 19.2876 462.319 24.7996 459.806 30.8658C457.293 36.9321 456 43.4339 456 50V100H506V50H556ZM114 50C114 22.3858 136.386 0 164 0C191.614 0 214 22.3858 214 50V100H164C136.386 100 114 77.6142 114 50ZM392 100C419.614 100 442 77.6142 442 50C442 22.3858 419.614 0 392 0C364.386 0 342 22.3858 342 50C342 77.6142 364.386 100 392 100ZM228 0H328C328 24.2012 308.381 43.8202 284.18 43.8202H228V0ZM271.82 56.1798C247.619 56.1798 228 75.7988 228 100H328V56.1798H271.82Z"/>
</mask>
<path fill-rule="evenodd" clip-rule="evenodd" d="M100 50C100 43.4339 98.7067 36.9321 96.194 30.8658C93.6812 24.7995 89.9983 19.2876 85.3553 14.6447C80.7124 10.0017 75.2004 6.31876 69.1342 3.80602C63.0679 1.29329 56.5661 0 50 0C43.4339 0 36.9321 1.29329 30.8658 3.80602C24.7995 6.31876 19.2876 10.0017 14.6447 14.6447C10.0017 19.2876 6.31876 24.7996 3.80602 30.8658C1.29329 36.9321 0 43.4339 0 50V100H50V50H100ZM556 50C556 43.4339 554.707 36.9321 552.194 30.8658C549.681 24.7995 545.998 19.2876 541.355 14.6447C536.712 10.0017 531.2 6.31876 525.134 3.80602C519.068 1.29329 512.566 0 506 0C499.434 0 492.932 1.29329 486.866 3.80602C480.8 6.31876 475.288 10.0017 470.645 14.6447C466.002 19.2876 462.319 24.7996 459.806 30.8658C457.293 36.9321 456 43.4339 456 50V100H506V50H556ZM114 50C114 22.3858 136.386 0 164 0C191.614 0 214 22.3858 214 50V100H164C136.386 100 114 77.6142 114 50ZM392 100C419.614 100 442 77.6142 442 50C442 22.3858 419.614 0 392 0C364.386 0 342 22.3858 342 50C342 77.6142 364.386 100 392 100ZM228 0H328C328 24.2012 308.381 43.8202 284.18 43.8202H228V0ZM271.82 56.1798C247.619 56.1798 228 75.7988 228 100H328V56.1798H271.82Z" fill="#0DD952"/>
<path d="M100 50V60H110V50H100ZM85.3553 14.6447L92.4264 7.57359V7.57359L85.3553 14.6447ZM69.1342 3.80602L72.961 -5.43277V-5.43277L69.1342 3.80602ZM30.8658 3.80602L27.039 -5.43277L27.039 -5.43277L30.8658 3.80602ZM14.6447 14.6447L7.57359 7.5736L7.57359 7.5736L14.6447 14.6447ZM3.80602 30.8658L13.0448 34.6927L3.80602 30.8658ZM0 100H-10V110H0V100ZM50 100V110H60V100H50ZM50 50V40H40V50H50ZM552.194 30.8658L542.955 34.6926L542.955 34.6927L552.194 30.8658ZM556 50V60H566V50H556ZM541.355 14.6447L548.426 7.57358V7.57358L541.355 14.6447ZM525.134 3.80602L528.961 -5.43277V-5.43277L525.134 3.80602ZM486.866 3.80602L483.039 -5.43277V-5.43277L486.866 3.80602ZM470.645 14.6447L463.574 7.57358L463.574 7.57361L470.645 14.6447ZM459.806 30.8658L469.045 34.6927L469.045 34.6927L459.806 30.8658ZM456 100H446V110H456V100ZM506 100V110H516V100H506ZM506 50V40H496V50H506ZM214 100V110H224V100H214ZM328 0H338V-10H328V0ZM228 0V-10H218V0H228ZM228 43.8202H218V53.8202H228V43.8202ZM228 100H218V110H228V100ZM328 100V110H338V100H328ZM328 56.1798H338V46.1798H328V56.1798ZM86.9552 34.6927C88.9654 39.5457 90 44.7471 90 50H110C110 42.1207 108.448 34.3185 105.433 27.039L86.9552 34.6927ZM78.2843 21.7157C81.9986 25.4301 84.945 29.8396 86.9552 34.6927L105.433 27.039C102.417 19.7595 97.9979 13.1451 92.4264 7.57359L78.2843 21.7157ZM65.3073 13.0448C70.1604 15.055 74.5699 18.0014 78.2843 21.7157L92.4264 7.57359C86.8549 2.00208 80.2405 -2.41749 72.961 -5.43277L65.3073 13.0448ZM50 10C55.2529 10 60.4543 11.0346 65.3073 13.0448L72.961 -5.43277C65.6815 -8.44806 57.8793 -10 50 -10V10ZM34.6927 13.0448C39.5457 11.0346 44.7471 10 50 10V-10C42.1207 -10 34.3185 -8.44805 27.039 -5.43277L34.6927 13.0448ZM21.7157 21.7157C25.4301 18.0014 29.8396 15.055 34.6927 13.0448L27.039 -5.43277C19.7595 -2.41749 13.1451 2.00208 7.57359 7.5736L21.7157 21.7157ZM13.0448 34.6927C15.055 29.8396 18.0014 25.4301 21.7157 21.7157L7.57359 7.5736C2.00208 13.1451 -2.41749 19.7595 -5.43277 27.039L13.0448 34.6927ZM10 50C10 44.7471 11.0346 39.5457 13.0448 34.6927L-5.43277 27.039C-8.44806 34.3185 -10 42.1207 -10 50H10ZM10 100V50H-10V100H10ZM50 90H0V110H50V90ZM40 50V100H60V50H40ZM100 40H50V60H100V40ZM542.955 34.6927C544.965 39.5457 546 44.7471 546 50H566C566 42.1207 564.448 34.3185 561.433 27.039L542.955 34.6927ZM534.284 21.7157C537.999 25.4301 540.945 29.8396 542.955 34.6926L561.433 27.039C558.418 19.7595 553.998 13.1451 548.426 7.57358L534.284 21.7157ZM521.307 13.0448C526.16 15.055 530.57 18.0014 534.284 21.7157L548.426 7.57358C542.855 2.00207 536.241 -2.41749 528.961 -5.43277L521.307 13.0448ZM506 10C511.253 10 516.454 11.0346 521.307 13.0448L528.961 -5.43277C521.681 -8.44805 513.879 -10 506 -10V10ZM490.693 13.0448C495.546 11.0346 500.747 10 506 10V-10C498.121 -10 490.319 -8.44805 483.039 -5.43277L490.693 13.0448ZM477.716 21.7157C481.43 18.0014 485.84 15.055 490.693 13.0448L483.039 -5.43277C475.759 -2.41748 469.145 2.00208 463.574 7.57358L477.716 21.7157ZM469.045 34.6927C471.055 29.8396 474.001 25.4301 477.716 21.7157L463.574 7.57361C458.002 13.1451 453.583 19.7595 450.567 27.039L469.045 34.6927ZM466 50C466 44.7471 467.035 39.5457 469.045 34.6927L450.567 27.039C447.552 34.3185 446 42.1207 446 50H466ZM466 100V50H446V100H466ZM506 90H456V110H506V90ZM496 50V100H516V50H496ZM556 40H506V60H556V40ZM164 -10C130.863 -10 104 16.8629 104 50H124C124 27.9086 141.909 10 164 10V-10ZM224 50C224 16.8629 197.137 -10 164 -10V10C186.091 10 204 27.9086 204 50H224ZM224 100V50H204V100H224ZM164 110H214V90H164V110ZM104 50C104 83.1371 130.863 110 164 110V90C141.909 90 124 72.0914 124 50H104ZM432 50C432 72.0914 414.091 90 392 90V110C425.137 110 452 83.1371 452 50H432ZM392 10C414.091 10 432 27.9086 432 50H452C452 16.8629 425.137 -10 392 -10V10ZM352 50C352 27.9086 369.909 10 392 10V-10C358.863 -10 332 16.8629 332 50H352ZM392 90C369.909 90 352 72.0914 352 50H332C332 83.1371 358.863 110 392 110V90ZM328 -10H228V10H328V-10ZM284.18 53.8202C313.904 53.8202 338 29.7241 338 0H318C318 18.6784 302.858 33.8202 284.18 33.8202V53.8202ZM228 53.8202H284.18V33.8202H228V53.8202ZM218 0V43.8202H238V0H218ZM238 100C238 81.3216 253.142 66.1798 271.82 66.1798V46.1798C242.096 46.1798 218 70.2759 218 100H238ZM328 90H228V110H328V90ZM318 56.1798V100H338V56.1798H318ZM271.82 66.1798H328V46.1798H271.82V66.1798Z" fill="#0DD952" mask="url(#path-1-inside-1_13_334)"/>
</svg>
