<svg width="50" height="48" viewBox="0 0 50 48" fill="none" xmlns="http://www.w3.org/2000/svg">
<path fill-rule="evenodd" clip-rule="evenodd" d="M12.1125 14.875V11.875H15.1125H20.75H23.75C23.75 10.8604 23.62 9.85235 23.3648 8.875C23.2278 8.35009 23.0546 7.83405 22.8461 7.33063C22.2493 5.88989 21.3746 4.5808 20.2719 3.47811C19.1692 2.37541 17.8601 1.50071 16.4194 0.90393C14.9786 0.307156 13.4344 0 11.875 0C10.3156 0 8.77137 0.307156 7.33063 0.903931C5.88989 1.50071 4.5808 2.37541 3.47811 3.47811C2.37541 4.5808 1.5007 5.88989 0.90393 7.33064C0.307156 8.77138 0 10.3156 0 11.875V22.65V23.75V25.65V26.75V31.1573V34.1573H3H13.3427C18.0476 34.1573 22.0232 31.0353 23.3111 26.75C23.5966 25.8001 23.75 24.7929 23.75 23.75H20.75H12.1125V22.65V14.875ZM15.2713 3.67557L16.4194 0.90393L15.2713 3.67557C16.3481 4.12158 17.3265 4.77531 18.1506 5.59943C18.9747 6.42355 19.6284 7.40192 20.0744 8.47869C20.1287 8.60969 20.1798 8.74183 20.2276 8.875H12.1125H9.1125V11.875V22.65H3V11.875C3 10.7095 3.22956 9.55545 3.67557 8.47869C4.12158 7.40192 4.77531 6.42355 5.59943 5.59943C6.42355 4.77531 7.40192 4.12158 8.47868 3.67557C9.55545 3.22956 10.7095 3 11.875 3C13.0405 3 14.1946 3.22956 15.2713 3.67557ZM47 20.75V11.875C47 6.97347 43.0265 3 38.125 3C33.2235 3 29.25 6.97347 29.25 11.875C29.25 16.7765 33.2235 20.75 38.125 20.75H47ZM38.125 0C31.5666 0 26.25 5.31662 26.25 11.875C26.25 18.4334 31.5666 23.75 38.125 23.75C31.5666 23.75 26.25 29.0666 26.25 35.625C26.25 42.1834 31.5666 47.5 38.125 47.5C44.6834 47.5 50 42.1834 50 35.625C50 29.0666 44.6834 23.75 38.125 23.75H47H50V20.75V11.875C50 5.31662 44.6834 0 38.125 0ZM47 35.625C47 40.5265 43.0265 44.5 38.125 44.5C33.2235 44.5 29.25 40.5265 29.25 35.625C29.25 30.7235 33.2235 26.75 38.125 26.75C43.0265 26.75 47 30.7235 47 35.625ZM20.1173 26.75H3V31.1573H13.3427C16.3658 31.1573 18.9659 29.3463 20.1173 26.75ZM3 47.5004H0C0 46.4575 0.153412 45.4503 0.4389 44.5004C1.72678 40.2151 5.70245 37.0931 10.4073 37.0931H20.75H23.75V40.0931V44.5004V47.5004H20.75H3ZM20.75 44.5004H3.63267C4.78409 41.9041 7.38421 40.0931 10.4073 40.0931H20.75V44.5004Z" fill="white"/>
</svg>
